<svg id="hourglass" xmlns="http://www.w3.org/2000/svg" width="21.801" height="37.208" viewBox="0 0 21.801 37.208">
  <path id="Trazado_1988" data-name="Trazado 1988" d="M140.727,304.453a.727.727,0,1,0-.727-.727A.727.727,0,0,0,140.727,304.453Zm0,0" transform="translate(-129.826 -280.981)" fill="#fff"/>
  <path id="Trazado_1989" data-name="Trazado 1989" d="M14.875,17.967A11.439,11.439,0,0,0,18.912,13.8a11.251,11.251,0,0,0,1.436-5.487V4.235A2.184,2.184,0,0,0,21.8,2.18V.726A.727.727,0,0,0,21.075,0H.727A.727.727,0,0,0,0,.726V2.18A2.184,2.184,0,0,0,1.454,4.235V8.309A11.251,11.251,0,0,0,2.89,13.8a11.438,11.438,0,0,0,4.037,4.171.761.761,0,0,1,0,1.274,11.437,11.437,0,0,0-4.037,4.17A11.251,11.251,0,0,0,1.454,28.9v4.074A2.184,2.184,0,0,0,0,35.027V36.48a.727.727,0,0,0,.727.727H21.075a.727.727,0,0,0,.727-.727V35.027a2.184,2.184,0,0,0-1.453-2.055V28.9a11.251,11.251,0,0,0-1.436-5.487,11.438,11.438,0,0,0-4.037-4.171.761.761,0,0,1,0-1.273ZM1.454,1.453H20.348V2.18a.727.727,0,0,1-.727.727H2.18a.727.727,0,0,1-.727-.727Zm18.894,34.3H1.454v-.727A.727.727,0,0,1,2.18,34.3H19.622a.727.727,0,0,1,.727.727ZM14.12,20.482A9.8,9.8,0,0,1,18.895,28.9v3.949H2.907V28.9a9.8,9.8,0,0,1,4.774-8.416,2.213,2.213,0,0,0,0-3.758A9.8,9.8,0,0,1,2.907,8.309V4.36H18.895V8.309a9.8,9.8,0,0,1-4.774,8.416,2.213,2.213,0,0,0,0,3.758Zm0,0" transform="translate(0 0)" fill="#fff"/>
  <path id="Trazado_1990" data-name="Trazado 1990" d="M67.12,342.752a.726.726,0,0,0-.581-.291h0a.727.727,0,0,0-.581.29,3.7,3.7,0,0,1-1.014.921,16.47,16.47,0,0,1-2.232,1.092c-1.455.614-2.712,1.144-2.712,3.158v.32a.727.727,0,0,0,.727.727H72.354a.727.727,0,0,0,.727-.727v-.32c0-2.013-1.26-2.545-2.718-3.162a16.78,16.78,0,0,1-2.254-1.1,3.616,3.616,0,0,1-.989-.9Zm4.479,4.763H61.482c.111-.672.569-.895,1.795-1.412a17.961,17.961,0,0,0,2.421-1.188l.007,0a5.245,5.245,0,0,0,.833-.637,5.11,5.11,0,0,0,.809.62l.008,0a18.264,18.264,0,0,0,2.443,1.2c1.231.52,1.691.745,1.8,1.416Zm0,0" transform="translate(-55.64 -317.574)" fill="#fff"/>
  <path id="Trazado_1991" data-name="Trazado 1991" d="M73.081,88.062V86.725a.727.727,0,0,0-1.112-.616,10.243,10.243,0,0,1-10.857,0A.727.727,0,0,0,60,86.725v1.337a6.917,6.917,0,0,0,1.4,3.912,11.862,11.862,0,0,0,3.569,3.261,3.587,3.587,0,0,1,.841.754v3.6a.727.727,0,1,0,1.453,0v-3.6a3.707,3.707,0,0,1,.87-.772C71.094,93.435,73.081,90.56,73.081,88.062Zm-5.7,5.914-.007,0a4.917,4.917,0,0,0-.833.656A4.692,4.692,0,0,0,65.734,94l-.008,0c-2.556-1.539-4.273-3.923-4.273-5.93v-.107a11.7,11.7,0,0,0,10.174,0v.107C71.627,90.039,69.882,92.47,67.383,93.976Zm0,0" transform="translate(-55.64 -79.749)" fill="#fff"/>
</svg>
