<svg id="medal" xmlns="http://www.w3.org/2000/svg" width="27.599" height="36.4" viewBox="0 0 27.599 36.4">
  <g id="Grupo_353" data-name="Grupo 353" transform="translate(3.411 3.418)">
    <g id="Grupo_352" data-name="Grupo 352">
      <path id="Trazado_1992" data-name="Trazado 1992" d="M124.913,49.2a10.366,10.366,0,0,0-12.86,15.609.574.574,0,0,0,.905-.7A9.219,9.219,0,0,1,124.4,50.223a.574.574,0,1,0,.517-1.024Z" transform="translate(-109.878 -48.082)" fill="#fff"/>
    </g>
  </g>
  <g id="Grupo_355" data-name="Grupo 355" transform="translate(7.196 8.802)">
    <g id="Grupo_354" data-name="Grupo 354">
      <path id="Trazado_1993" data-name="Trazado 1993" d="M178.94,124.122a.574.574,0,0,0-1.024.517,9.219,9.219,0,0,1-13.881,11.436.574.574,0,1,0-.7.905,10.366,10.366,0,0,0,15.61-12.858Z" transform="translate(-163.109 -123.806)" fill="#fff"/>
    </g>
  </g>
  <g id="Grupo_357" data-name="Grupo 357" transform="translate(19.675 5.873)">
    <g id="Grupo_356" data-name="Grupo 356">
      <path id="Trazado_1994" data-name="Trazado 1994" d="M340.516,83.664c-.142-.161-.291-.32-.444-.472s-.311-.3-.472-.444a.574.574,0,0,0-.76.86c.143.127.285.26.421.4s.269.277.4.42a.574.574,0,0,0,.86-.76Z" transform="translate(-338.647 -82.605)" fill="#fff"/>
    </g>
  </g>
  <g id="Grupo_359" data-name="Grupo 359" transform="translate(0 0)">
    <g id="Grupo_358" data-name="Grupo 358">
      <path id="Trazado_1995" data-name="Trazado 1995" d="M89.21,14.817a1.947,1.947,0,0,0,0-2.034l-.755-1.238A.808.808,0,0,1,88.347,11l.225-1.429a1.946,1.946,0,0,0-.781-1.884l-1.17-.851a.808.808,0,0,1-.31-.463l-.341-1.408a1.946,1.946,0,0,0-1.439-1.44l-1.408-.341a.807.807,0,0,1-.463-.31l-.851-1.17A1.945,1.945,0,0,0,79.928.925L78.5,1.15a.808.808,0,0,1-.545-.108L76.715.287a1.947,1.947,0,0,0-2.034,0l-1.238.755a.807.807,0,0,1-.545.108L71.468.925a1.946,1.946,0,0,0-1.884.781l-.851,1.17a.808.808,0,0,1-.463.31l-1.408.341a1.946,1.946,0,0,0-1.44,1.439l-.341,1.408a.807.807,0,0,1-.31.463l-1.17.851a1.946,1.946,0,0,0-.781,1.884L63.048,11a.808.808,0,0,1-.108.545l-.755,1.238a1.947,1.947,0,0,0,0,2.034l.755,1.238a.808.808,0,0,1,.108.545l-.225,1.429a1.946,1.946,0,0,0,.781,1.884l1.17.851a.807.807,0,0,1,.31.463l.341,1.408a1.946,1.946,0,0,0,1.439,1.44l.588.142-3.978,8.874a.574.574,0,0,0,.592.8l3.2-.383,1.844,2.644a.574.574,0,0,0,.47.245l.054,0a.574.574,0,0,0,.47-.336L74.166,27l.515.314a1.947,1.947,0,0,0,2.034,0l.533-.325,4.068,9.074a.573.573,0,0,0,.47.336l.054,0a.574.574,0,0,0,.47-.245l1.844-2.644,3.2.383a.574.574,0,0,0,.592-.8l-3.98-8.878.566-.137a1.946,1.946,0,0,0,1.44-1.439l.341-1.408a.807.807,0,0,1,.31-.463l1.17-.851a1.946,1.946,0,0,0,.781-1.884l-.225-1.43a.807.807,0,0,1,.108-.545ZM69.47,34.667l-1.461-2.1a.573.573,0,0,0-.539-.241l-2.537.3,3.624-8.085a.8.8,0,0,1,.175.175l.851,1.17a1.972,1.972,0,0,0,.271.3L67.947,30.45a.574.574,0,1,0,1.047.469l1.9-4.24a1.963,1.963,0,0,0,.573-.005l1.43-.225a.805.805,0,0,1,.256,0Zm17.015-2.034-2.537-.3a.573.573,0,0,0-.539.241l-1.461,2.1-3.685-8.22a.807.807,0,0,1,.234,0l1.429.225a1.965,1.965,0,0,0,.6,0l1.9,4.244a.574.574,0,1,0,1.047-.469l-1.915-4.272a1.974,1.974,0,0,0,.254-.285l.851-1.17a.806.806,0,0,1,.193-.188Zm1.746-18.414-.755,1.238a1.956,1.956,0,0,0-.262,1.321l.225,1.43a.8.8,0,0,1-.322.778l-1.17.851a1.956,1.956,0,0,0-.75,1.12l-.341,1.408a.8.8,0,0,1-.594.594l-1.408.341a1.956,1.956,0,0,0-1.121.75l-.851,1.17a.8.8,0,0,1-.778.322l-1.429-.225a1.956,1.956,0,0,0-1.321.262l-1.238.755a.8.8,0,0,1-.84,0l-1.238-.755a1.955,1.955,0,0,0-1.321-.262l-1.43.225a.8.8,0,0,1-.778-.322l-.851-1.17a1.956,1.956,0,0,0-1.12-.75l-1.408-.341a.8.8,0,0,1-.594-.594L66.2,20.956a1.956,1.956,0,0,0-.75-1.121l-1.17-.851a.8.8,0,0,1-.322-.778l.225-1.429a1.956,1.956,0,0,0-.262-1.321l-.755-1.238a.8.8,0,0,1,0-.84l.755-1.238a1.956,1.956,0,0,0,.262-1.321l-.225-1.43a.8.8,0,0,1,.322-.778l1.17-.851a1.956,1.956,0,0,0,.75-1.12l.341-1.408a.8.8,0,0,1,.594-.594L68.541,4.3a1.956,1.956,0,0,0,1.121-.75l.851-1.17a.8.8,0,0,1,.778-.322l1.429.225a1.955,1.955,0,0,0,1.321-.262l1.238-.755a.8.8,0,0,1,.84,0l1.238.755a1.955,1.955,0,0,0,1.321.262l1.43-.225a.8.8,0,0,1,.778.322l.851,1.17a1.956,1.956,0,0,0,1.12.75l1.408.341a.8.8,0,0,1,.594.594L85.2,6.643a1.956,1.956,0,0,0,.75,1.121l1.17.851a.8.8,0,0,1,.322.778l-.225,1.429a1.956,1.956,0,0,0,.262,1.321l.755,1.238A.8.8,0,0,1,88.231,14.219Z" transform="translate(-61.898 0)" fill="#fff"/>
    </g>
  </g>
  <g id="Grupo_361" data-name="Grupo 361" transform="translate(7.035 7.138)">
    <g id="Grupo_360" data-name="Grupo 360">
      <path id="Trazado_1996" data-name="Trazado 1996" d="M174.326,105.275a1.026,1.026,0,0,0-.864-.709l-3.452-.409L168.555,101a1.037,1.037,0,0,0-1.883,0l-1.456,3.156-3.452.409a1.037,1.037,0,0,0-.582,1.79l2.552,2.36-.677,3.409a1.04,1.04,0,0,0,1.015,1.24,1.037,1.037,0,0,0,.508-.134l3.033-1.7,3.033,1.7a1.037,1.037,0,0,0,1.523-1.106l-.677-3.409,2.552-2.36A1.026,1.026,0,0,0,174.326,105.275Zm-3.849,2.817a.574.574,0,0,0-.173.533l.693,3.489-3.1-1.737a.574.574,0,0,0-.56,0l-3.1,1.737.693-3.489a.573.573,0,0,0-.173-.533l-2.611-2.415,3.532-.419a.574.574,0,0,0,.453-.329l1.49-3.23,1.49,3.23a.574.574,0,0,0,.453.329l3.532.419Z" transform="translate(-160.849 -100.398)" fill="#fff"/>
    </g>
  </g>
</svg>
