<svg xmlns="http://www.w3.org/2000/svg" width="270.669" height="71.714" viewBox="0 0 270.669 71.714">
  <g id="bules_logo_Mesa_de_trabajo_1" data-name="bules logo_Mesa de trabajo 1" transform="translate(-44.591 -47.121)">
    <path id="Trazado_7892" data-name="Trazado 7892" d="M829.458,209.691h-.069v2.031H824v-25.9h5.395v11.044h.063a6.41,6.41,0,0,1,5.689-3.059,6.245,6.245,0,0,1,5.212,2.324,10.015,10.015,0,0,1,1.828,6.357,10.853,10.853,0,0,1-2.135,7.022,6.966,6.966,0,0,1-5.712,2.649A5.528,5.528,0,0,1,829.458,209.691Zm-.154-7.382V204.1a4.1,4.1,0,0,0,.974,2.8,3.166,3.166,0,0,0,2.494,1.111,3.309,3.309,0,0,0,2.862-1.427,6.894,6.894,0,0,0,1.016-4.04,5.482,5.482,0,0,0-.932-3.393,3.139,3.139,0,0,0-2.657-1.221,3.427,3.427,0,0,0-2.691,1.214,4.627,4.627,0,0,0-1.061,3.161Z" transform="translate(-680.036 -120.709)" fill="#11314c"/>
    <path id="Trazado_7893" data-name="Trazado 7893" d="M1051.019,269.547h-5.382v-2.666h-.086a6.1,6.1,0,0,1-5.348,3.094q-6.084,0-6.083-7.362V252.05h5.382v10.082q0,3.707,2.94,3.708a2.909,2.909,0,0,0,2.323-1.016,4.1,4.1,0,0,0,.872-2.76V252.05h5.382Z" transform="translate(-863.483 -178.532)" fill="#11314c"/>
    <path id="Trazado_7894" data-name="Trazado 7894" d="M1249.86,211.725h-5.4v-25.9h5.4Z" transform="translate(-1047.123 -120.709)" fill="#11314c"/>
    <path id="Trazado_7895" data-name="Trazado 7895" d="M1372.66,259.369h-11.425q.274,3.808,4.8,3.808a9.391,9.391,0,0,0,5.078-1.367V265.7a13.335,13.335,0,0,1-6.305,1.3,8.144,8.144,0,0,1-8.92-8.9,9.365,9.365,0,0,1,2.529-6.9,8.424,8.424,0,0,1,6.22-2.546,7.645,7.645,0,0,1,5.92,2.273,8.785,8.785,0,0,1,2.1,6.172Zm-5.013-3.312q0-3.759-3.047-3.759a2.9,2.9,0,0,0-2.247,1.076,4.859,4.859,0,0,0-1.149,2.682Z" transform="translate(-1144.408 -175.564)" fill="#11314c"/>
    <path id="Trazado_7896" data-name="Trazado 7896" d="M1545.547,266.161v-4.374a11.535,11.535,0,0,0,2.658,1.2,8.824,8.824,0,0,0,2.5.392,5.38,5.38,0,0,0,2.265-.392,1.269,1.269,0,0,0,.828-1.2,1.106,1.106,0,0,0-.381-.854,3.492,3.492,0,0,0-.965-.6,11.216,11.216,0,0,0-1.291-.461q-.7-.206-1.349-.461a12.928,12.928,0,0,1-1.837-.847,5.257,5.257,0,0,1-1.333-1.051,4.116,4.116,0,0,1-.82-1.384,5.526,5.526,0,0,1-.283-1.862,4.8,4.8,0,0,1,.641-2.53,5.239,5.239,0,0,1,1.715-1.731,7.808,7.808,0,0,1,2.442-.991,12.749,12.749,0,0,1,2.863-.316,15.76,15.76,0,0,1,2.359.18,17.638,17.638,0,0,1,2.357.52v4.17a8.522,8.522,0,0,0-2.195-.9,9.267,9.267,0,0,0-2.3-.3,5.118,5.118,0,0,0-1,.093,3.327,3.327,0,0,0-.829.274,1.505,1.505,0,0,0-.564.461,1.061,1.061,0,0,0-.206.641,1.186,1.186,0,0,0,.307.82,2.672,2.672,0,0,0,.8.59,7.935,7.935,0,0,0,1.1.444q.608.2,1.2.4a15.822,15.822,0,0,1,1.948.82,6.259,6.259,0,0,1,1.5,1.042,4.112,4.112,0,0,1,.957,1.4,5.61,5.61,0,0,1-.343,4.571,5.4,5.4,0,0,1-1.787,1.8,8.145,8.145,0,0,1-2.581,1.008,14.3,14.3,0,0,1-3.033.316A15.663,15.663,0,0,1,1545.547,266.161Z" transform="translate(-1309.985 -175.607)" fill="#11314c"/>
    <path id="Trazado_7897" data-name="Trazado 7897" d="M48.415,460.148h-.036v1.236H45.09V445.63h3.289v6.71h.042a3.9,3.9,0,0,1,3.459-1.86,3.811,3.811,0,0,1,3.173,1.413,6.052,6.052,0,0,1,1.112,3.865,6.6,6.6,0,0,1-1.3,4.269,4.237,4.237,0,0,1-3.481,1.61A3.355,3.355,0,0,1,48.415,460.148Zm-.094-4.487v1.09a2.491,2.491,0,0,0,.593,1.7,1.924,1.924,0,0,0,1.523.675,2.01,2.01,0,0,0,1.739-.867,4.2,4.2,0,0,0,.618-2.458,3.327,3.327,0,0,0-.566-2.061A1.914,1.914,0,0,0,50.613,453a2.083,2.083,0,0,0-1.636.737,2.767,2.767,0,0,0-.656,1.916Z" transform="translate(0 -347.539)" fill="#11314c"/>
    <path id="Trazado_7898" data-name="Trazado 7898" d="M183.142,496.484h-3.274v-1.621h-.052a3.709,3.709,0,0,1-3.248,1.88q-3.7,0-3.7-4.477v-6.419h3.271v6.129q0,2.254,1.787,2.254a1.766,1.766,0,0,0,1.413-.618,2.5,2.5,0,0,0,.527-1.678V485.84h3.272Z" transform="translate(-111.56 -382.645)" fill="#11314c"/>
    <path id="Trazado_7899" data-name="Trazado 7899" d="M303.983,461.378H300.7V445.63h3.283Z" transform="translate(-223.163 -347.539)" fill="#11314c"/>
    <path id="Trazado_7900" data-name="Trazado 7900" d="M374.165,495a5.706,5.706,0,0,1-4.181-1.49,6.161,6.161,0,0,1,.056-8.175,5.973,5.973,0,0,1,4.27-1.492,5.648,5.648,0,0,1,4.155,1.492,5.3,5.3,0,0,1,1.507,3.941,5.634,5.634,0,0,1-1.554,4.189A5.753,5.753,0,0,1,374.165,495Zm.084-8.642a2.187,2.187,0,0,0-1.808.8,3.544,3.544,0,0,0-.645,2.265q0,3.063,2.473,3.064,2.357,0,2.359-3.148Q376.627,486.356,374.248,486.355Z" transform="translate(-282.322 -380.899)" fill="#11314c"/>
    <path id="Trazado_7901" data-name="Trazado 7901" d="M511.334,494.738h-3.273v-5.912q0-2.472-1.766-2.472a1.753,1.753,0,0,0-1.4.654,2.5,2.5,0,0,0-.551,1.663v6.066H501.06V484.1h3.283v1.683h.042a3.76,3.76,0,0,1,3.417-1.943q3.533,0,3.533,4.384Z" transform="translate(-398.09 -380.899)" fill="#11314c"/>
    <path id="Trazado_7902" data-name="Trazado 7902" d="M632.792,490.353h-6.94q.166,2.318,2.92,2.317a5.707,5.707,0,0,0,3.086-.83v2.369a8.116,8.116,0,0,1-3.834.788,4.954,4.954,0,0,1-5.424-5.411,5.692,5.692,0,0,1,1.538-4.2,5.122,5.122,0,0,1,3.78-1.549,4.649,4.649,0,0,1,3.6,1.382,5.307,5.307,0,0,1,1.269,3.75Zm-3.047-2.015q0-2.285-1.849-2.285a1.765,1.765,0,0,0-1.366.655,2.976,2.976,0,0,0-.7,1.631Z" transform="translate(-504.201 -380.899)" fill="#11314c"/>
    <path id="Trazado_7903" data-name="Trazado 7903" d="M737.93,494.457v-2.666a7.019,7.019,0,0,0,1.615.727,5.383,5.383,0,0,0,1.523.239,3.276,3.276,0,0,0,1.377-.239.777.777,0,0,0,.508-.727.671.671,0,0,0-.228-.519,2.136,2.136,0,0,0-.586-.364,6.707,6.707,0,0,0-.784-.281c-.284-.083-.557-.176-.821-.281a7.737,7.737,0,0,1-1.116-.508,3.182,3.182,0,0,1-.81-.635,2.509,2.509,0,0,1-.5-.842,3.357,3.357,0,0,1-.171-1.132,2.909,2.909,0,0,1,.383-1.541,3.183,3.183,0,0,1,1.038-1.055,4.766,4.766,0,0,1,1.485-.6,7.742,7.742,0,0,1,1.74-.193,9.7,9.7,0,0,1,1.433.109,10.676,10.676,0,0,1,1.434.317v2.539a5.167,5.167,0,0,0-1.335-.546,5.663,5.663,0,0,0-1.4-.182,3.086,3.086,0,0,0-.607.057,1.941,1.941,0,0,0-.508.166.912.912,0,0,0-.343.281.635.635,0,0,0-.127.388.721.721,0,0,0,.188.5,1.6,1.6,0,0,0,.487.359,4.7,4.7,0,0,0,.67.269q.369.121.732.245a9.446,9.446,0,0,1,1.184.5,3.79,3.79,0,0,1,.909.635,2.488,2.488,0,0,1,.581.852,3.01,3.01,0,0,1,.2,1.163,3.047,3.047,0,0,1-.409,1.611,3.284,3.284,0,0,1-1.092,1.09,4.952,4.952,0,0,1-1.568.613,8.7,8.7,0,0,1-1.844.192A9.52,9.52,0,0,1,737.93,494.457Z" transform="translate(-604.891 -380.899)" fill="#11314c"/>
    <path id="Trazado_7904" data-name="Trazado 7904" d="M920.162,518.215H914.48v-2.3h5.682Z" transform="translate(-759.03 -408.907)" fill="#11314c"/>
    <path id="Trazado_7905" data-name="Trazado 7905" d="M1083.14,490.353H1076.2q.166,2.318,2.92,2.317a5.707,5.707,0,0,0,3.086-.83v2.369a8.117,8.117,0,0,1-3.834.788,4.952,4.952,0,0,1-5.423-5.411,5.692,5.692,0,0,1,1.539-4.2,5.121,5.121,0,0,1,3.78-1.549,4.65,4.65,0,0,1,3.6,1.382,5.308,5.308,0,0,1,1.269,3.75Zm-3.047-2.015q0-2.285-1.85-2.285a1.765,1.765,0,0,0-1.366.655,2.976,2.976,0,0,0-.7,1.631Z" transform="translate(-897.384 -380.899)" fill="#11314c"/>
    <path id="Trazado_7906" data-name="Trazado 7906" d="M1188.27,494.483v-2.666a7.017,7.017,0,0,0,1.615.727,5.382,5.382,0,0,0,1.523.239,3.267,3.267,0,0,0,1.376-.239.779.779,0,0,0,.508-.727.671.671,0,0,0-.229-.519,2.136,2.136,0,0,0-.586-.364,6.712,6.712,0,0,0-.785-.281c-.284-.082-.557-.176-.821-.281a7.732,7.732,0,0,1-1.116-.508,3.209,3.209,0,0,1-.811-.635,2.527,2.527,0,0,1-.5-.842,3.356,3.356,0,0,1-.171-1.132,2.91,2.91,0,0,1,.39-1.537,3.183,3.183,0,0,1,1.038-1.055,4.764,4.764,0,0,1,1.485-.6,7.742,7.742,0,0,1,1.74-.193,9.7,9.7,0,0,1,1.433.109,10.681,10.681,0,0,1,1.434.317v2.539a5.169,5.169,0,0,0-1.335-.546,5.665,5.665,0,0,0-1.4-.182,3.08,3.08,0,0,0-.607.057,1.94,1.94,0,0,0-.508.166.913.913,0,0,0-.343.281.635.635,0,0,0-.127.388.721.721,0,0,0,.188.5,1.6,1.6,0,0,0,.487.359,4.686,4.686,0,0,0,.67.269q.37.121.732.245a9.452,9.452,0,0,1,1.184.5,3.792,3.792,0,0,1,.909.635,2.489,2.489,0,0,1,.581.852,3.011,3.011,0,0,1,.2,1.163,3.048,3.048,0,0,1-.41,1.616,3.285,3.285,0,0,1-1.092,1.09,4.951,4.951,0,0,1-1.568.613,8.7,8.7,0,0,1-1.844.192A9.52,9.52,0,0,1,1188.27,494.483Z" transform="translate(-998.066 -380.925)" fill="#11314c"/>
    <path id="Trazado_7907" data-name="Trazado 7907" d="M1295.945,493.508h-.042v6.129h-3.283V484.1h3.283v1.6h.042a4.177,4.177,0,0,1,6.612-.442,6.038,6.038,0,0,1,1.127,3.86,6.546,6.546,0,0,1-1.314,4.269,4.28,4.28,0,0,1-3.5,1.61A3.319,3.319,0,0,1,1295.945,493.508Zm-.093-4.363V490a2.712,2.712,0,0,0,.581,1.8,1.894,1.894,0,0,0,1.523.7,2.016,2.016,0,0,0,1.74-.867,4.17,4.17,0,0,0,.617-2.458q0-2.805-2.181-2.8a2.047,2.047,0,0,0-1.65.762,3.039,3.039,0,0,0-.631,2.016Z" transform="translate(-1089.17 -380.899)" fill="#11314c"/>
    <path id="Trazado_7908" data-name="Trazado 7908" d="M1425.12,494.738h-3.1v-1.523h-.042A3.471,3.471,0,0,1,1418.8,495a3.314,3.314,0,0,1-2.436-.877,3.149,3.149,0,0,1-.889-2.342q0-3.1,3.667-3.575l2.888-.381q0-1.747-1.89-1.745a6.449,6.449,0,0,0-3.615,1.132v-2.479a8.162,8.162,0,0,1,1.875-.623,9.844,9.844,0,0,1,2.166-.27q4.551,0,4.551,4.539Zm-3.086-4.322V489.7l-1.932.254q-1.6.207-1.6,1.445a1.192,1.192,0,0,0,.39.919,1.5,1.5,0,0,0,1.054.358,1.942,1.942,0,0,0,1.507-.635A2.313,2.313,0,0,0,1422.034,490.415Z" transform="translate(-1196.434 -380.899)" fill="#11314c"/>
    <path id="Trazado_7909" data-name="Trazado 7909" d="M1543.941,487.555a2.85,2.85,0,0,0-1.381-.322,1.992,1.992,0,0,0-1.673.784,3.415,3.415,0,0,0-.6,2.135v5.078H1537V484.592h3.284v1.974h.041a2.839,2.839,0,0,1,2.805-2.158,2.1,2.1,0,0,1,.81.127Z" transform="translate(-1302.528 -381.393)" fill="#11314c"/>
    <path id="Trazado_7910" data-name="Trazado 7910" d="M1635.79,487.555a2.852,2.852,0,0,0-1.382-.322,1.988,1.988,0,0,0-1.672.784,3.432,3.432,0,0,0-.6,2.135v5.078h-3.283V484.592h3.283v1.974h.042a2.839,2.839,0,0,1,2.8-2.158,2.107,2.107,0,0,1,.811.127Z" transform="translate(-1382.719 -381.393)" fill="#11314c"/>
    <path id="Trazado_7911" data-name="Trazado 7911" d="M1724.066,494.764h-3.106v-1.523h-.042a3.471,3.471,0,0,1-3.173,1.786,3.319,3.319,0,0,1-2.436-.877,3.137,3.137,0,0,1-.889-2.342q0-3.1,3.667-3.575l2.887-.381q0-1.747-1.89-1.745a6.451,6.451,0,0,0-3.615,1.132V484.76a8.182,8.182,0,0,1,1.881-.619,9.856,9.856,0,0,1,2.167-.27q4.549,0,4.549,4.539Zm-3.086-4.322v-.716l-1.932.254q-1.6.207-1.6,1.445a1.192,1.192,0,0,0,.39.919,1.5,1.5,0,0,0,1.055.358,1.94,1.94,0,0,0,1.505-.635,2.306,2.306,0,0,0,.581-1.625Z" transform="translate(-1457.427 -380.925)" fill="#11314c"/>
    <path id="Trazado_7912" data-name="Trazado 7912" d="M1842.065,493.522a6.02,6.02,0,0,1-1.714,4.586,6.945,6.945,0,0,1-4.966,1.626,7.872,7.872,0,0,1-3.407-.613v-2.763a6.523,6.523,0,0,0,3.313.956,3.552,3.552,0,0,0,2.577-.877,3.151,3.151,0,0,0,.914-2.384v-.842h-.039A3.666,3.666,0,0,1,1835.43,495a3.984,3.984,0,0,1-3.231-1.433,5.843,5.843,0,0,1-1.2-3.844,6.48,6.48,0,0,1,1.329-4.291,4.335,4.335,0,0,1,3.5-1.589,3.229,3.229,0,0,1,2.908,1.5h.042V484.1h3.283Zm-3.241-3.895v-.842a2.587,2.587,0,0,0-.6-1.72,1.933,1.933,0,0,0-1.552-.711,2.008,2.008,0,0,0-1.715.852,4.016,4.016,0,0,0-.623,2.4,3.372,3.372,0,0,0,.593,2.1,1.928,1.928,0,0,0,1.621.774,2.011,2.011,0,0,0,1.65-.784A3.229,3.229,0,0,0,1838.825,489.627Z" transform="translate(-1559.208 -380.899)" fill="#11314c"/>
    <path id="Trazado_7913" data-name="Trazado 7913" d="M1965.615,495a5.706,5.706,0,0,1-4.181-1.49,6.161,6.161,0,0,1,.056-8.175,5.975,5.975,0,0,1,4.271-1.492,5.645,5.645,0,0,1,4.155,1.492,5.305,5.305,0,0,1,1.507,3.941,5.634,5.634,0,0,1-1.554,4.189A5.755,5.755,0,0,1,1965.615,495Zm.084-8.642a2.187,2.187,0,0,0-1.808.8,3.544,3.544,0,0,0-.645,2.265q0,3.063,2.473,3.064,2.357,0,2.359-3.148Q1968.077,486.356,1965.7,486.355Z" transform="translate(-1671.754 -380.899)" fill="#11314c"/>
    <path id="Trazado_7914" data-name="Trazado 7914" d="M2087,494.483v-2.666a7.049,7.049,0,0,0,1.616.727,5.367,5.367,0,0,0,1.523.239,3.267,3.267,0,0,0,1.377-.239.778.778,0,0,0,.508-.727.675.675,0,0,0-.228-.519,2.146,2.146,0,0,0-.588-.364,6.691,6.691,0,0,0-.784-.281c-.283-.083-.557-.176-.82-.281a7.75,7.75,0,0,1-1.117-.508,3.225,3.225,0,0,1-.81-.635,2.507,2.507,0,0,1-.5-.842,3.359,3.359,0,0,1-.171-1.132,2.912,2.912,0,0,1,.39-1.537,3.2,3.2,0,0,1,1.038-1.055,4.765,4.765,0,0,1,1.485-.6,7.755,7.755,0,0,1,1.74-.193,9.718,9.718,0,0,1,1.435.109,10.708,10.708,0,0,1,1.433.317v2.539a5.15,5.15,0,0,0-1.335-.546,5.646,5.646,0,0,0-1.4-.182,3.092,3.092,0,0,0-.608.057,1.954,1.954,0,0,0-.508.166.91.91,0,0,0-.343.281.634.634,0,0,0-.127.388.719.719,0,0,0,.187.5,1.591,1.591,0,0,0,.489.359,4.733,4.733,0,0,0,.669.269q.369.121.732.245a9.453,9.453,0,0,1,1.184.5,3.8,3.8,0,0,1,.909.635,2.51,2.51,0,0,1,.583.852,3.415,3.415,0,0,1-.208,2.779,3.293,3.293,0,0,1-1.091,1.09,4.95,4.95,0,0,1-1.569.613,8.7,8.7,0,0,1-1.844.192A9.52,9.52,0,0,1,2087,494.483Z" transform="translate(-1782.711 -380.925)" fill="#11314c"/>
    <path id="Trazado_7915" data-name="Trazado 7915" d="M829.781,48.77v1.594h-.762v5.959h.762v1.6H826.19v-1.6h.762V50.364h-.762V48.77Z" transform="translate(-681.948 -1.056)" fill="#11314c"/>
    <path id="Trazado_7916" data-name="Trazado 7916" d="M888.5,57.919H886.42l-3.773-5.748a8.452,8.452,0,0,1-.46-.762h-.025q.051.484.051,1.48v5.027H880.27V48.77h2.22l3.63,5.569q.248.381.46.746h.025a9.666,9.666,0,0,1-.052-1.257V48.77H888.5Z" transform="translate(-729.163 -1.056)" fill="#11314c"/>
    <path id="Trazado_7917" data-name="Trazado 7917" d="M977,57.919V48.77h3.241q4.873,0,4.873,4.459a4.511,4.511,0,0,1-1.33,3.413,4.876,4.876,0,0,1-3.543,1.269Zm2.064-7.469v5.8h1.016a2.757,2.757,0,0,0,2.1-.8,3.051,3.051,0,0,0,.762-2.188,2.757,2.757,0,0,0-.762-2.058,2.872,2.872,0,0,0-2.11-.749Z" transform="translate(-813.614 -1.056)" fill="#11314c"/>
    <path id="Trazado_7918" data-name="Trazado 7918" d="M1065.912,48.77v1.594h-.762v5.959h.762v1.6h-3.592v-1.6h.762V50.364h-.762V48.77Z" transform="translate(-888.104 -1.056)" fill="#11314c"/>
    <path id="Trazado_7919" data-name="Trazado 7919" d="M1112.821,56.535v-2.04a3.934,3.934,0,0,0,1.206.7,3.885,3.885,0,0,0,1.314.232,2.9,2.9,0,0,0,.679-.07,1.566,1.566,0,0,0,.485-.2.843.843,0,0,0,.291-.293.732.732,0,0,0,.1-.367.8.8,0,0,0-.152-.479,1.649,1.649,0,0,0-.418-.388,4.388,4.388,0,0,0-.635-.345q-.364-.165-.786-.338a4,4,0,0,1-1.6-1.09,2.385,2.385,0,0,1-.519-1.555,2.475,2.475,0,0,1,.287-1.228,2.433,2.433,0,0,1,.782-.845,3.494,3.494,0,0,1,1.142-.487,5.876,5.876,0,0,1,1.377-.157,8.335,8.335,0,0,1,1.269.086,4.92,4.92,0,0,1,1.016.265v1.9a3.16,3.16,0,0,0-.5-.281,4.062,4.062,0,0,0-.558-.2,4.235,4.235,0,0,0-.571-.118,4.048,4.048,0,0,0-.538-.038,2.824,2.824,0,0,0-.635.067,1.618,1.618,0,0,0-.485.188.938.938,0,0,0-.306.291.687.687,0,0,0-.108.381.724.724,0,0,0,.121.411,1.4,1.4,0,0,0,.344.344,3.726,3.726,0,0,0,.543.32q.319.156.72.321a8.018,8.018,0,0,1,.986.489,3.553,3.553,0,0,1,.75.584,2.264,2.264,0,0,1,.477.743,2.632,2.632,0,0,1,.166.972,2.6,2.6,0,0,1-.291,1.286,2.35,2.35,0,0,1-.787.842,3.419,3.419,0,0,1-1.158.463,6.674,6.674,0,0,1-1.4.141,7.751,7.751,0,0,1-1.432-.127A4.314,4.314,0,0,1,1112.821,56.535Z" transform="translate(-932.16 -0.024)" fill="#11314c"/>
    <path id="Trazado_7920" data-name="Trazado 7920" d="M1190.132,50.449h-2.61v7.47h-2.067v-7.47h-2.6V48.77h7.272Z" transform="translate(-993.342 -1.056)" fill="#11314c"/>
    <path id="Trazado_7921" data-name="Trazado 7921" d="M1272.964,57.919H1270.6l-1.423-2.355q-.16-.267-.306-.479a2.694,2.694,0,0,0-.3-.361,1.2,1.2,0,0,0-.312-.23.8.8,0,0,0-.354-.079h-.555v3.5h-2.06V48.77h3.264q3.331,0,3.33,2.488a2.581,2.581,0,0,1-.146.889,2.476,2.476,0,0,1-.415.731,2.665,2.665,0,0,1-.647.561,3.345,3.345,0,0,1-.845.369v.025a1.3,1.3,0,0,1,.395.208,2.741,2.741,0,0,1,.371.335,4.586,4.586,0,0,1,.341.411q.162.22.3.43Zm-5.613-7.6v2.548h.889a1.482,1.482,0,0,0,1.066-.381,1.277,1.277,0,0,0,.407-.963q0-1.2-1.434-1.2Z" transform="translate(-1065.309 -1.056)" fill="#11314c"/>
    <path id="Trazado_7922" data-name="Trazado 7922" d="M1345.481,48.77v1.594h-.762v5.959h.762v1.6h-3.591v-1.6h.762V50.364h-.762V48.77Z" transform="translate(-1132.185 -1.056)" fill="#11314c"/>
    <path id="Trazado_7923" data-name="Trazado 7923" d="M1397.258,57.919h-2.245l-.651-2.031h-3.253l-.645,2.031h-2.233l3.331-9.149H1394Zm-3.369-3.618-.983-3.074a3.975,3.975,0,0,1-.152-.823h-.052a3.441,3.441,0,0,1-.159.8l-1,3.1Z" transform="translate(-1172.643 -1.056)" fill="#11314c"/>
    <path id="Trazado_7924" data-name="Trazado 7924" d="M1527.61,57.919V48.77h3.331a4.158,4.158,0,0,1,2.353.561,1.806,1.806,0,0,1,.824,1.583,1.875,1.875,0,0,1-.508,1.295,2.636,2.636,0,0,1-1.28.772v.025a2.539,2.539,0,0,1,1.56.721,2.014,2.014,0,0,1,.584,1.461,2.44,2.44,0,0,1-.9,1.993,3.772,3.772,0,0,1-2.456.738Zm2.062-7.63v2.169h.908a1.519,1.519,0,0,0,1.005-.31,1.056,1.056,0,0,0,.367-.852q0-1.008-1.505-1.008Zm0,3.7V56.4h1.116a1.715,1.715,0,0,0,1.12-.333,1.105,1.105,0,0,0,.4-.905,1.037,1.037,0,0,0-.4-.862,1.76,1.76,0,0,0-1.113-.312Z" transform="translate(-1294.33 -1.056)" fill="#11314c"/>
    <path id="Trazado_7925" data-name="Trazado 7925" d="M1615.756,53.957q0,4.12-3.84,4.122-3.727,0-3.726-4.027V48.77h2.067v5.307q0,2.22,1.735,2.22,1.7,0,1.7-2.143V48.77h2.06Z" transform="translate(-1364.681 -1.056)" fill="#11314c"/>
    <path id="Trazado_7926" data-name="Trazado 7926" d="M1704.358,57.919h-5.448V48.77h2.06v7.477h3.388Z" transform="translate(-1443.885 -1.056)" fill="#11314c"/>
    <path id="Trazado_7927" data-name="Trazado 7927" d="M1766.88,57.022a4.258,4.258,0,0,1-3.2-1.28,4.593,4.593,0,0,1-1.238-3.333A4.922,4.922,0,0,1,1763.7,48.9a4.35,4.35,0,0,1,3.331-1.34,4.172,4.172,0,0,1,3.173,1.283,4.686,4.686,0,0,1,1.208,3.38,4.84,4.84,0,0,1-1.253,3.477A4.32,4.32,0,0,1,1766.88,57.022Zm.089-7.689a2.074,2.074,0,0,0-1.721.814,3.412,3.412,0,0,0-.635,2.158,3.374,3.374,0,0,0,.635,2.149,2.04,2.04,0,0,0,1.671.791,2.072,2.072,0,0,0,1.691-.762,3.315,3.315,0,0,0,.63-2.144,3.568,3.568,0,0,0-.607-2.214A1.975,1.975,0,0,0,1766.969,49.333Z" transform="translate(-1499.351)" fill="#11314c"/>
    <path id="Trazado_7928" data-name="Trazado 7928" d="M1868.68,57.919H1866.6l-3.77-5.748a8.453,8.453,0,0,1-.46-.762h-.025q.051.484.051,1.48v5.027h-1.946V48.77h2.22l3.63,5.569c.165.254.319.5.458.746h.027a9.645,9.645,0,0,1-.052-1.257V48.77h1.946Z" transform="translate(-1584.92 -1.056)" fill="#11314c"/>
    <path id="Trazado_7929" data-name="Trazado 7929" d="M1962.7,57.919h-5.486V48.77h5.276v1.679h-3.215V52.48h2.991v1.674h-2.992v2.092h3.427Z" transform="translate(-1669.397 -1.056)" fill="#11314c"/>
    <path id="Trazado_7930" data-name="Trazado 7930" d="M2035.069,57.919H2032.7l-1.427-2.355q-.16-.267-.306-.479a2.694,2.694,0,0,0-.3-.361,1.249,1.249,0,0,0-.312-.23.812.812,0,0,0-.354-.079h-.555v3.5h-2.061V48.77h3.266q3.33,0,3.331,2.488a2.579,2.579,0,0,1-.147.889,2.471,2.471,0,0,1-.414.731,2.665,2.665,0,0,1-.647.561,3.345,3.345,0,0,1-.845.369v.025a1.3,1.3,0,0,1,.395.208,2.734,2.734,0,0,1,.371.335,4.808,4.808,0,0,1,.341.411c.108.146.207.289.3.43Zm-5.613-7.6v2.548h.889a1.476,1.476,0,0,0,1.065-.381,1.269,1.269,0,0,0,.409-.963q0-1.2-1.436-1.2Z" transform="translate(-1730.668 -1.056)" fill="#11314c"/>
    <path id="Trazado_7931" data-name="Trazado 7931" d="M2111.364,57.919h-2.246l-.651-2.031h-3.251l-.644,2.031h-2.233l3.33-9.149h2.444Zm-3.369-3.618-.982-3.074a3.975,3.975,0,0,1-.152-.823h-.051a3.51,3.51,0,0,1-.16.8l-1,3.1Z" transform="translate(-1796.104 -1.056)" fill="#11314c"/>
    <path id="Trazado_7932" data-name="Trazado 7932" d="M1748.073,325.793v-2.381a6.2,6.2,0,0,0,1.446.651,4.763,4.763,0,0,0,1.362.215,2.919,2.919,0,0,0,1.233-.215.69.69,0,0,0,.451-.651.6.6,0,0,0-.2-.465,1.867,1.867,0,0,0-.526-.325,5.853,5.853,0,0,0-.7-.254q-.381-.112-.735-.254a6.9,6.9,0,0,1-1-.461,2.884,2.884,0,0,1-.726-.571,2.255,2.255,0,0,1-.447-.754,3.022,3.022,0,0,1-.152-1.016,2.607,2.607,0,0,1,.348-1.376,2.852,2.852,0,0,1,.93-.944,4.227,4.227,0,0,1,1.33-.539,6.957,6.957,0,0,1,1.558-.173,8.7,8.7,0,0,1,1.283.1,9.647,9.647,0,0,1,1.283.284v2.268a4.619,4.619,0,0,0-1.194-.487,5.017,5.017,0,0,0-1.252-.164,2.749,2.749,0,0,0-.543.052,1.817,1.817,0,0,0-.452.149.832.832,0,0,0-.307.254.582.582,0,0,0-.112.349.642.642,0,0,0,.168.446,1.45,1.45,0,0,0,.438.321,4.238,4.238,0,0,0,.6.241c.221.072.439.145.656.22a8.408,8.408,0,0,1,1.06.446,3.382,3.382,0,0,1,.814.567,2.225,2.225,0,0,1,.521.762,3.047,3.047,0,0,1-.185,2.488,2.942,2.942,0,0,1-.976.976,4.441,4.441,0,0,1-1.405.55,7.809,7.809,0,0,1-1.65.171A8.5,8.5,0,0,1,1748.073,325.793Z" transform="translate(-1486.807 -234.609)" fill="#11314c"/>
    <path id="Trazado_7933" data-name="Trazado 7933" d="M1840.188,373.88a1.71,1.71,0,0,1-1.208-.447,1.433,1.433,0,0,1-.484-1.1,1.38,1.38,0,0,1,.5-1.1,1.84,1.84,0,0,1,1.242-.428,1.777,1.777,0,0,1,1.233.433,1.5,1.5,0,0,1-.01,2.2A1.842,1.842,0,0,1,1840.188,373.88Z" transform="translate(-1565.752 -282.217)" fill="#11314c"/>
    <path id="Trazado_7934" data-name="Trazado 7934" d="M1910.882,319.684a2.538,2.538,0,0,0-1.236-.289,1.777,1.777,0,0,0-1.5.7,3.062,3.062,0,0,0-.541,1.912v4.548h-2.939v-9.52h2.939V318.8h.038a2.543,2.543,0,0,1,2.511-1.933,1.9,1.9,0,0,1,.725.11Z" transform="translate(-1623.526 -235.121)" fill="#11314c"/>
    <path id="Trazado_7935" data-name="Trazado 7935" d="M1985.579,373.88a1.71,1.71,0,0,1-1.208-.447,1.433,1.433,0,0,1-.484-1.1,1.38,1.38,0,0,1,.5-1.1,1.839,1.839,0,0,1,1.241-.428,1.777,1.777,0,0,1,1.233.433,1.5,1.5,0,0,1-.01,2.2A1.844,1.844,0,0,1,1985.579,373.88Z" transform="translate(-1692.687 -282.217)" fill="#11314c"/>
    <path id="Trazado_7936" data-name="Trazado 7936" d="M2053,296.229h-2.938v-14.1H2053Z" transform="translate(-1750.461 -204.794)" fill="#11314c"/>
    <path id="Trazado_7937" data-name="Trazado 7937" d="M2113.9,373.88a1.708,1.708,0,0,1-1.208-.447,1.434,1.434,0,0,1-.484-1.1,1.38,1.38,0,0,1,.5-1.1,1.839,1.839,0,0,1,1.241-.428,1.778,1.778,0,0,1,1.233.433,1.5,1.5,0,0,1-.01,2.2A1.844,1.844,0,0,1,2113.9,373.88Z" transform="translate(-1804.718 -282.217)" fill="#11314c"/>
    <rect id="Rect치ngulo_3056" data-name="Rect치ngulo 3056" width="85.084" height="39.831" transform="translate(47.087 49.517)" fill="#11314c"/>
    <rect id="Rect치ngulo_3057" data-name="Rect치ngulo 3057" width="88.794" height="43.814" transform="translate(45.091 47.621)" fill="none" stroke="#11314c" stroke-width="1"/>
    <path id="Trazado_7938" data-name="Trazado 7938" d="M197.142,124.415c0,5.444-5.882,8.215-12.186,8.215-3.591,0-6.507-.858-8.433-2.672l-4.113,2.276V107.39h4.633v11.417a12.973,12.973,0,0,1,8.59-2.706C191.467,116.1,197.142,118.972,197.142,124.415Zm-5.05,0c0-4.189-2.656-6.961-7.289-6.961-3.643,0-6.3,1.221-7.756,3.2v7.786c1.353,1.815,3.7,2.838,7.236,2.838C189.176,131.279,192.092,128.605,192.092,124.415Z" transform="translate(-111.158 -52.235)" fill="#fff"/>
    <path id="Trazado_7939" data-name="Trazado 7939" d="M430.453,184.824H411.66c.156,3.959,2.6,6.6,8.59,6.6,3.8,0,6.767-.858,8.537-2.244l1.094.66c-2.5,1.913-5.936,2.969-10.517,2.969-7.34,0-12.754-2.969-12.754-8.414,0-5.41,5.882-8.117,12.337-8.117C425.143,176.279,430.765,178.589,430.453,184.824Zm-18.741-1.155h13.744c-.156-3.827-2.4-6.1-6.56-6.1C414.626,177.566,411.972,179.809,411.712,183.669Z" transform="translate(-315.629 -112.38)" fill="#fff"/>
  </g>
</svg>
